# xmcd
#
# Track frame offsets:
#	150
#	17725
#	42425
#	60612
#	80475
#	98095
#	118007
#	138687
#	159725
#	186287
#	212737
#	226330
#	245137
#	263280
#
# Disc length: 3821 seconds
#
# Revision: 2
# Processed by: cddbd v1.4PL0 Copyright (c) Steve Scherf et al.
# Submitted via: audiograbber 1.81.03
#
DISCID=c20eeb0e
DTITLE=Bill Evans - Trio 64 Plus
DYEAR=1964
DGENRE=Jazz
TTITLE0=Little Lulu
TTITLE1=A Sleeping Bee
TTITLE2=Always
TTITLE3=Santa Claus is Coming to Town
TTITLE4=I'll See You Again
TTITLE5=For Heaven's Sake
TTITLE6=Dancing in the Dark
TTITLE7=Everything Happens To Me
TTITLE8=Granadas
TTITLE9=Valse
TTITLE10=Prelude
TTITLE11=Time Remembered
TTITLE12=Pavane
TTITLE13=Elegia
EXTD=DJ-Besos
EXTT0=
EXTT1=
EXTT2=
EXTT3=
EXTT4=
EXTT5=
EXTT6=
EXTT7=
EXTT8=
EXTT9=
EXTT10=
EXTT11=
EXTT12=
EXTT13=
PLAYORDER=
